<svg xmlns="http://www.w3.org/2000/svg" width="1600" height="900" viewBox="0 0 1600 900" role="img" aria-label="SGO - Sistema de Gestão Operacional com dados fictícios">
  <defs>
    <linearGradient id="bg" x1="0" y1="0" x2="1" y2="1">
      <stop offset="0" stop-color="#071a2f"/>
      <stop offset="0.55" stop-color="#0b2744"/>
      <stop offset="1" stop-color="#0f3a64"/>
    </linearGradient>
    <linearGradient id="panel" x1="0" y1="0" x2="0" y2="1">
      <stop offset="0" stop-color="#132640"/>
      <stop offset="1" stop-color="#081827"/>
    </linearGradient>
    <filter id="shadow" x="-20%" y="-20%" width="140%" height="140%">
      <feDropShadow dx="0" dy="18" stdDeviation="22" flood-color="#000000" flood-opacity="0.25"/>
    </filter>
  </defs>

  <rect width="1600" height="900" fill="url(#bg)"/>
  <circle cx="1400" cy="120" r="180" fill="#2dd4bf" opacity="0.08"/>
  <circle cx="180" cy="780" r="220" fill="#60a5fa" opacity="0.08"/>

  <g transform="translate(48 34)">
    <rect x="0" y="0" width="60" height="60" rx="14" fill="#44d7c4"/>
    <rect x="16" y="16" width="12" height="12" fill="#ffffff" opacity="0.95"/>
    <rect x="32" y="16" width="12" height="12" fill="#ffffff" opacity="0.95"/>
    <rect x="16" y="32" width="12" height="12" fill="#ffffff" opacity="0.95"/>
    <rect x="32" y="32" width="12" height="12" fill="#ffffff" opacity="0.95"/>
    <text x="84" y="36" font-family="Arial, sans-serif" font-size="40" font-weight="900" fill="#54f0dc">SGO</text>
    <text x="170" y="36" font-family="Arial, sans-serif" font-size="38" font-weight="900" fill="#ffffff">— Sistema de Gestão Operacional</text>
    <text x="84" y="72" font-family="Arial, sans-serif" font-size="21" fill="#cbd5e1">Controle, organização e eficiência na gestão de registros.</text>
  </g>

  <g transform="translate(1230 36)">
    <rect width="318" height="44" rx="22" fill="#1e3a5f" opacity="0.90"/>
    <circle cx="28" cy="22" r="7" fill="#60a5fa"/>
    <text x="48" y="28" font-family="Arial, sans-serif" font-size="18" fill="#e2e8f0">Demonstração com dados fictícios</text>
  </g>

  <g filter="url(#shadow)">
    <rect x="48" y="116" width="1504" height="742" rx="24" fill="#f8fafc" stroke="#5b6f88" stroke-width="2"/>
    <rect x="48" y="116" width="1504" height="76" rx="24" fill="url(#panel)"/>
    <rect x="48" y="162" width="1504" height="30" fill="url(#panel)"/>

    <text x="86" y="164" font-family="Arial, sans-serif" font-size="24" font-weight="900" fill="#54f0dc">SGO</text>
    <text x="210" y="164" font-family="Arial, sans-serif" font-size="17" fill="#cbd5e1">Dashboard</text>
    <text x="350" y="164" font-family="Arial, sans-serif" font-size="17" font-weight="800" fill="#ffffff">Registros</text>
    <rect x="330" y="188" width="130" height="4" rx="2" fill="#2dd4bf"/>
    <text x="500" y="164" font-family="Arial, sans-serif" font-size="17" fill="#cbd5e1">Contratos</text>
    <text x="650" y="164" font-family="Arial, sans-serif" font-size="17" fill="#cbd5e1">Relatórios</text>
    <text x="800" y="164" font-family="Arial, sans-serif" font-size="17" fill="#cbd5e1">Configurações</text>
    <rect x="1080" y="136" width="205" height="36" rx="8" fill="#243b59"/>
    <text x="1106" y="159" font-family="Arial, sans-serif" font-size="15" fill="#94a3b8">Buscar registros...</text>
    <circle cx="1420" cy="154" r="18" fill="#0f766e"/>
    <text x="1450" y="150" font-family="Arial, sans-serif" font-size="15" font-weight="800" fill="#ffffff">Administrador</text>
    <text x="1450" y="170" font-family="Arial, sans-serif" font-size="13" fill="#86efac">● Online</text>

    <rect x="68" y="212" width="1464" height="614" rx="14" fill="#ffffff"/>
    <rect x="86" y="226" width="108" height="34" rx="8" fill="#ffffff" stroke="#dbe3ea"/>
    <text x="112" y="248" font-family="Arial, sans-serif" font-size="16" fill="#0f172a">Filtros</text>
    <text x="220" y="248" font-family="Arial, sans-serif" font-size="16" fill="#475569">Exibindo 12 de 12 registros</text>
    <rect x="1290" y="226" width="115" height="34" rx="8" fill="#ffffff" stroke="#dbe3ea"/>
    <text x="1320" y="248" font-family="Arial, sans-serif" font-size="16" fill="#0f172a">Colunas</text>
    <rect x="1420" y="226" width="92" height="34" rx="8" fill="#0f766e"/>
    <text x="1442" y="248" font-family="Arial, sans-serif" font-size="16" font-weight="800" fill="#ffffff">Novo</text>

    <g transform="translate(86 278)">
      <rect width="1426" height="46" fill="#0f1f33"/>
      <text x="32" y="29" font-family="Arial, sans-serif" font-size="16" font-weight="800" fill="#ffffff">ID</text>
      <text x="130" y="29" font-family="Arial, sans-serif" font-size="16" font-weight="800" fill="#ffffff">Situação</text>
      <text x="270" y="29" font-family="Arial, sans-serif" font-size="16" font-weight="800" fill="#ffffff">Nome</text>
      <text x="520" y="29" font-family="Arial, sans-serif" font-size="16" font-weight="800" fill="#ffffff">Captador</text>
      <text x="690" y="29" font-family="Arial, sans-serif" font-size="16" font-weight="800" fill="#ffffff">Plano</text>
      <text x="790" y="29" font-family="Arial, sans-serif" font-size="16" font-weight="800" fill="#ffffff">Mensalidade</text>
      <text x="980" y="29" font-family="Arial, sans-serif" font-size="16" font-weight="800" fill="#ffffff">Data de Entrada</text>
      <text x="1160" y="29" font-family="Arial, sans-serif" font-size="16" font-weight="800" fill="#ffffff">Status</text>
      <text x="1300" y="29" font-family="Arial, sans-serif" font-size="16" font-weight="800" fill="#ffffff">Responsável</text>

      <g font-family="Arial, sans-serif" font-size="15" fill="#0f172a">
        <g transform="translate(0 46)"><rect width="1426" height="43" fill="#ffffff"/><text x="32" y="27">AC-0001</text><rect x="126" y="10" width="78" height="24" rx="8" fill="#dcfce7" stroke="#86efac"/><text x="148" y="27" font-weight="800" fill="#16a34a">Ativo</text><text x="270" y="27">Registro Exemplo 01</text><text x="520" y="27">Captador Alfa</text><rect x="690" y="9" width="48" height="25" rx="6" fill="#7c3aed"/><text x="705" y="27" fill="#ffffff" font-weight="800">90</text><text x="790" y="27">R$ 1.200,00</text><text x="980" y="27">05/01/2025</text><rect x="1160" y="10" width="120" height="24" rx="8" fill="#dcfce7"/><text x="1184" y="27" font-weight="800" fill="#16a34a">Em vigência</text><text x="1300" y="27">Responsável A</text></g>
        <g transform="translate(0 89)"><rect width="1426" height="43" fill="#ecfeff" opacity="0.65"/><text x="32" y="27">AC-0002</text><rect x="126" y="10" width="78" height="24" rx="8" fill="#dcfce7" stroke="#86efac"/><text x="148" y="27" font-weight="800" fill="#16a34a">Ativo</text><text x="270" y="27">Registro Exemplo 02</text><text x="520" y="27">Captador Beta</text><rect x="690" y="9" width="48" height="25" rx="6" fill="#ef4444"/><text x="700" y="27" fill="#ffffff" font-weight="800">180</text><text x="790" y="27">R$ 1.450,00</text><text x="980" y="27">12/01/2025</text><rect x="1160" y="10" width="120" height="24" rx="8" fill="#dcfce7"/><text x="1184" y="27" font-weight="800" fill="#16a34a">Em vigência</text><text x="1300" y="27">Responsável B</text></g>
        <g transform="translate(0 132)"><rect width="1426" height="43" fill="#ffffff"/><text x="32" y="27">AC-0003</text><rect x="126" y="10" width="78" height="24" rx="8" fill="#dcfce7" stroke="#86efac"/><text x="148" y="27" font-weight="800" fill="#16a34a">Ativo</text><text x="270" y="27">Registro Exemplo 03</text><text x="520" y="27">Captador Gama</text><rect x="690" y="9" width="48" height="25" rx="6" fill="#7c3aed"/><text x="705" y="27" fill="#ffffff" font-weight="800">90</text><text x="790" y="27">R$ 1.300,00</text><text x="980" y="27">18/01/2025</text><rect x="1160" y="10" width="120" height="24" rx="8" fill="#dcfce7"/><text x="1184" y="27" font-weight="800" fill="#16a34a">Em vigência</text><text x="1300" y="27">Responsável C</text></g>
        <g transform="translate(0 175)"><rect width="1426" height="43" fill="#ecfeff" opacity="0.65"/><text x="32" y="27">AC-0004</text><rect x="126" y="10" width="78" height="24" rx="8" fill="#dcfce7" stroke="#86efac"/><text x="148" y="27" font-weight="800" fill="#16a34a">Ativo</text><text x="270" y="27">Registro Exemplo 04</text><text x="520" y="27">Captador Delta</text><rect x="690" y="9" width="48" height="25" rx="6" fill="#ef4444"/><text x="700" y="27" fill="#ffffff" font-weight="800">180</text><text x="790" y="27">R$ 1.600,00</text><text x="980" y="27">22/01/2025</text><rect x="1160" y="10" width="120" height="24" rx="8" fill="#dcfce7"/><text x="1184" y="27" font-weight="800" fill="#16a34a">Em vigência</text><text x="1300" y="27">Responsável D</text></g>
        <g transform="translate(0 218)"><rect width="1426" height="43" fill="#ffffff"/><text x="32" y="27">AC-0005</text><rect x="126" y="10" width="78" height="24" rx="8" fill="#dcfce7" stroke="#86efac"/><text x="148" y="27" font-weight="800" fill="#16a34a">Ativo</text><text x="270" y="27">Registro Exemplo 05</text><text x="520" y="27">Captador Épsilon</text><rect x="690" y="9" width="48" height="25" rx="6" fill="#7c3aed"/><text x="705" y="27" fill="#ffffff" font-weight="800">90</text><text x="790" y="27">R$ 1.150,00</text><text x="980" y="27">28/01/2025</text><rect x="1160" y="10" width="120" height="24" rx="8" fill="#dcfce7"/><text x="1184" y="27" font-weight="800" fill="#16a34a">Em vigência</text><text x="1300" y="27">Responsável E</text></g>
        <g transform="translate(0 261)"><rect width="1426" height="43" fill="#ecfeff" opacity="0.65"/><text x="32" y="27">AC-0006</text><rect x="126" y="10" width="78" height="24" rx="8" fill="#dcfce7" stroke="#86efac"/><text x="148" y="27" font-weight="800" fill="#16a34a">Ativo</text><text x="270" y="27">Registro Exemplo 06</text><text x="520" y="27">Captador Zeta</text><rect x="690" y="9" width="48" height="25" rx="6" fill="#ef4444"/><text x="700" y="27" fill="#ffffff" font-weight="800">180</text><text x="790" y="27">R$ 1.550,00</text><text x="980" y="27">02/02/2025</text><rect x="1160" y="10" width="120" height="24" rx="8" fill="#dcfce7"/><text x="1184" y="27" font-weight="800" fill="#16a34a">Em vigência</text><text x="1300" y="27">Responsável F</text></g>
      </g>
    </g>

    <rect x="86" y="790" width="120" height="36" rx="8" fill="#ffffff" stroke="#dbe3ea"/>
    <text x="124" y="814" font-family="Arial, sans-serif" font-size="16" font-weight="800" fill="#0f172a">Resumo</text>
    <text x="250" y="814" font-family="Arial, sans-serif" font-size="16" fill="#475569">Total de registros: 12</text>
  </g>
</svg>