<svg xmlns="http://www.w3.org/2000/svg" width="1200" height="720" viewBox="0 0 1200 720">
  <rect width="1200" height="720" rx="42" fill="#fff2e2"/>
  <circle cx="1040" cy="120" r="150" fill="#f2b980" opacity="0.30"/>
  <circle cx="170" cy="620" r="180" fill="#f4c99f" opacity="0.25"/>
  <rect x="120" y="95" width="960" height="530" rx="32" fill="#fffdf9" stroke="#f0c999"/>
  <text x="175" y="175" font-family="Arial, sans-serif" font-size="34" font-weight="800" fill="#ea580c">FoodFlow</text>
  <text x="175" y="285" font-family="Arial, sans-serif" font-size="44" font-weight="900" fill="#1e293b">Delivery com produtos</text>
  <text x="175" y="340" font-family="Arial, sans-serif" font-size="44" font-weight="900" fill="#1e293b">e carrinho funcional</text>
  <text x="175" y="415" font-family="Arial, sans-serif" font-size="21" fill="#667085">Front-end funcional com carrinho e pedido demo</text>
  <rect x="175" y="485" width="110" height="68" rx="18" fill="#fff7ed" stroke="#f0c999"/>
  <text x="230" y="530" text-anchor="middle" font-family="Arial, sans-serif" font-size="32">🍔</text>
  <rect x="310" y="485" width="110" height="68" rx="18" fill="#fff7ed" stroke="#f0c999"/>
  <text x="365" y="530" text-anchor="middle" font-family="Arial, sans-serif" font-size="32">🍕</text>
  <rect x="445" y="485" width="110" height="68" rx="18" fill="#fff7ed" stroke="#f0c999"/>
  <text x="500" y="530" text-anchor="middle" font-family="Arial, sans-serif" font-size="32">🥗</text>
  <rect x="785" y="160" width="215" height="240" rx="26" fill="#fff8ef" stroke="#f0c999"/>
  <text x="825" y="220" font-family="Arial, sans-serif" font-size="18" font-weight="800" fill="#1e293b">Resumo</text>
  <line x1="825" y1="260" x2="955" y2="260" stroke="#f0c999" stroke-width="2"/>
  <text x="825" y="310" font-family="Arial, sans-serif" font-size="16" fill="#334155">Tempo</text>
  <text x="955" y="310" text-anchor="end" font-family="Arial, sans-serif" font-size="16" font-weight="800" fill="#1e293b">35 min</text>
  <line x1="825" y1="338" x2="955" y2="338" stroke="#f0c999" stroke-width="2"/>
  <text x="825" y="388" font-family="Arial, sans-serif" font-size="16" fill="#334155">Total</text>
  <text x="955" y="388" text-anchor="end" font-family="Arial, sans-serif" font-size="16" font-weight="800" fill="#ea580c">R$ 80</text>
</svg>